<svg xmlns="http://www.w3.org/2000/svg" viewBox="0 0 1024 1024">
  <rect width="1024" height="1024" fill="#07BBD0"/>
  <path
    d="M726.1 310.6c0.1-10.9-2.3-21.1-8.8-30.1 -11.1-15.6-29.7-15.8-40.6-0.2 -10.1 14.4-11.4 30.4-6.9 47.1 2.1 7.6 5.8 14.5 11.7 19.7 10.9 9.6 26 7.3 35.1-4.8C723.7 333 726.2 322.2 726.1 310.6z"
    fill="#FFF"/>
  <path
    d="M761.4 418.6c0 0.1-0.1 0.2-0.1 0.3 -2.2 0-4.5-0.1-6.7 0.1 -1.1 0.1-2.5 0.6-3.2 1.4 -6.4 7.3-12.9 14.7-19 22.2 -9.7 11.8-10.3 23-2 36.2 6.9 11 16.9 19.1 26.6 27.3 13.4 11.3 25.5 23.7 35.4 38.1 13.4 19.6 21.8 41 24.6 64.8 1.9 15.7 0.8 31.1-2.6 46.2 -5.4 24.7-16.8 46.7-32.3 66.6 -20.4 26.1-45.8 46.3-74.9 62.1 -20 10.8-40.8 19.6-62.8 25.1 -15.5 3.9-31.1 7.5-46.8 10 -13.3 2.1-26.9 2.7-40.4 3.4 -25.1 1.3-50.1 0-75-2.4 -20.8-2-41.4-5.1-61.7-10 -19.7-4.7-39.1-10.5-57.5-19 -12.8-5.9-25.3-12.5-37.5-19.5 -22.1-12.7-41.2-29.3-57.8-48.6 -17.1-19.9-31-41.9-40.2-66.4 -5.3-14.1-10-28.5-13.6-43.1 -3.1-12.3-5.2-25-6.2-37.6 -1.4-17.8-2.3-35.8-1.7-53.6 0.6-19 2.8-37.9 4.9-56.8 1.5-13.3 4.6-26.3 10.4-38.5 2.8-5.8 5.6-7.4 11.7-5.2 7.3 2.6 14.6 5.3 21.3 9.1 27 15.5 54.9 29 84.7 37.8 13.4 4 26.8 8.1 40.4 10.9 12 2.5 24.2 3.4 36.4 4.7 22.5 2.5 45 2.5 67.3-1.6 11.7-2.2 22.7-5.7 32.2-13.3 6.6-5.3 10.6-16.6 6.8-23.9 -2.6-5-5-10.1-7.8-14.9 -6.1-10.5-12.8-20.6-18.4-31.3 -7.9-15.4-11.6-32-13.3-49.2 -2.4-24.2 0.1-47.5 9.3-70.2 11.9-29.3 32.7-49.9 60.9-63.2 21.7-10.3 44.9-14.1 68.7-15.1 16.3-0.7 32 1.8 47.8 5.7 12.9 3.2 24.9 8.2 36.2 14.8 16.1 9.3 29.6 21.7 40.9 36.4 12.1 15.8 21.1 33 26.7 52.2 1.4 4.8 1.2 10.8 7.1 13.4M714.8 285.7c-9.1-12.8-24.4-13-33.4-0.1 -8.3 11.9-9.4 25-5.6 38.7 1.7 6.3 4.7 11.9 9.6 16.2 8.9 7.9 21.4 6 28.8-4 5.8-7.8 7.8-16.6 7.8-26.1C722.1 301.5 720.1 293.1 714.8 285.7z"
    fill="#FED401"/>
  <path
    d="M695.4 295c4.6-5.6 11.7-6.7 17.7-2.7 11.6 7.8 11.4 29.7-0.3 37.5 -5.8 3.8-13 2.7-17.4-2.9 -3.7-4.7-5.6-9.9-5.3-16.1C689.7 304.9 691.6 299.6 695.4 295zM699.2 311c3.1-0.4 3.9-2.8 3.9-5.4 0-2.6-0.8-5-4-5.3 -2.3-0.2-4.1 2.3-4.1 5.2C695 308.6 696.9 311.3 699.2 311z"
    fill="#010101"/>
  <path d="M695 305.5c0 3.1 1.9 5.8 4.2 5.5 3.1-0.4 3.9-2.8 3.9-5.4 0-2.6-0.8-5-4-5.3C696.8 300 695 302.5 695 305.5z"
        fill="#FFF"/>
  <path
    d="M777.3 322.2c-2.1 4.1-3.9 8.6-6.5 12.5 -6.5 9.5-13.4 18.7-20.1 28.1 -1.6 2.2-3.2 4.5-4.8 6.8 -5.1 7.2-5.9 15.1-2.9 23.2 3 8.1 6.3 16 9.8 23.8 0.6 1.3 2.9 2.7 4.2 2.6 14.2-1.3 28.4-2.4 42.4-4.7 11.9-2 23.7-4.9 35.3-8.4 12-3.6 24.5-6.5 34.7-14.6 13.4-10.6 16.8-21.5 12.7-37.6 -0.8-3.3-2.7-4.6-6.2-4.6 -14.8 0-29.4-1.8-43.9-5.2 -17.1-4-33.5-9.7-48.7-18.6C781.5 324.2 779.5 323.3 777.3 322.2z"
    fill="#ED1C24"/>
  <path
    d="M895.8 722.3c-64.1 0-70.6 67.2-128.2 67.2 -57.6 0-64.1-67.2-128.2-67.2 -64.1 0-70.6 67.2-128.2 67.2 -57.6 0-64.1-67.2-128.2-67.2M383.1 722.3c-64.1 0-70.6 67.2-128.2 67.2 -57.6 0-64.1-67.2-128.2-67.2 -64.1 0-70.6 67.2-128.2 67.2V1024H1024l0-234.5c-57.6 0-64.1-67.2-128.2-67.2"
    fill="#079DB7"/>
</svg>
