<svg version="1" xmlns="http://www.w3.org/2000/svg" width="933.333" height="933.333" viewBox="0 0 700.000000 700.000000"><path d="M418.5 28.7c-13.6.9-33.4 4.9-46.2 9.4-59.8 20.9-92.2 73.7-86.4 140.8 2.6 29.2 7.3 43.1 24.6 72.1 12.4 20.6 17.5 31.2 17.5 35.8 0 2.3-1.2 6.3-3 9.8-11.4 22.9-64.8 30.6-136.5 19.8-20.3-3-60.2-14.7-83.9-24.6-11-4.6-40.9-19-43.1-20.8-2.3-1.9-25.5-12.9-31.3-14.9-8.5-2.9-10.6-1.9-15 7.2C8.5 277 4.2 301.5 1 345c-3.1 41.6.9 86.2 10.9 120.6 14.1 49.1 33.2 82.5 65.7 115 20 20.1 38.7 32.9 71.4 49.3 35.2 17.6 66.9 27 112.1 33.5 30.8 4.4 41.4 5.1 81.4 5.1 48.2-.1 63.8-1.9 105-12.1 56.3-14 108.2-44.6 141-83.4 21.5-25.4 34.6-51.3 40.7-80.8 3.1-14.9 3.1-40.3 0-54.5-6.4-29.3-19.3-53.6-40.3-76.1-4.1-4.4-14.4-14.1-23-21.7-22.5-19.8-29.9-30.7-29.9-43.7 0-8.2 2.8-13.2 16.6-29.5 10-11.8 12-13.7 14.5-13.7 5.8 0 39.6-4.1 50.4-6.1 19.6-3.6 46.6-11.5 58.2-17 9.9-4.7 20.3-15.3 22.7-23.3 2-6.4 1.7-17.6-.7-22.5-1.1-2.4-1.8-2.6-10.7-3.4-36.5-2.9-57.2-8-82.7-20.7-9.3-4.5-14.3-7.6-15.1-9.2-.6-1.2-2.6-6.8-4.3-12.3-6.9-22.3-17.9-41.9-33.6-60-30.9-35.7-78.1-53.4-132.8-49.8zm94 77.4c5.3 1.3 11.4 6.4 14.9 12.3 2.8 4.8 5.7 14.5 5.5 18.6-.1 1.5-.5.6-1.1-2.3-.7-3.4-2.3-6.1-5.3-9.5-4.2-4.6-4.4-4.7-10.3-4.7-5.1 0-6.5.4-8.7 2.5-9.4 8.8-9.8 26.8-.8 35.5 7.9 7.7 18.6 4.6 24-7l1.4-3-.6 4c-1.7 10.2-10.4 21.3-18.5 23.5-14 3.8-25.9-8-29.1-28.5-3.1-20.7 7.8-40.4 23.4-42.4.5-.1 2.8.4 5.2 1zm-1.1 25.2c1.3.9 1.7 2.3 1.4 5.2-.3 3.7-.5 4-3.3 4-4 0-5.6-4.1-3.1-7.9 1.9-3 2.5-3.1 5-1.3zm21.3 15.9c-.3.7-.5.2-.5-1.2s.2-1.9.5-1.3c.2.7.2 1.9 0 2.5z"/></svg>